<svg xmlns="http://www.w3.org/2000/svg" xmlns:xlink="http://www.w3.org/1999/xlink" version="1.1" x="0px" y="0px" viewBox="0 0 100 100" enable-background="new 0 0 100 100" xml:space="preserve"><path d="M79.34,93.5c0,0.83-0.68,1.5-1.5,1.5h-34.8c-0.83,0-1.5-0.67-1.5-1.5s0.67-1.5,1.5-1.5h15.9V64.8  c-22.931-0.97-23.2-24.42-23.2-24.66l0.01-0.2l4.64-33.65c0.11-0.82,0.86-1.39,1.69-1.28c0.82,0.12,1.4,0.87,1.28,1.7l-4.62,33.53  c0.02,1.76,0.81,21.6,21.7,21.6c20.93,0,21.67-19.82,21.689-21.6L77.51,6.71c-0.109-0.83,0.46-1.58,1.28-1.7  c0.81-0.11,1.58,0.46,1.69,1.28l4.659,33.85c0,0.24-0.279,23.69-23.199,24.66V92H77.84C78.66,92,79.34,92.67,79.34,93.5z"></path><path d="M78.995,40.418C78.914,42.831,77.754,58.7,60.436,58.7c-17.19,0-18.468-15.428-18.56-18.282L42.56,35.5h35.752  L78.995,40.418z"></path><path d="M28.81,88.925c-1.402,2.388-4.487,3.19-6.875,1.788s-3.19-4.487-1.788-6.876c1.402-2.388,4.487-3.188,6.875-1.786  S30.213,86.536,28.81,88.925z"></path><path d="M23.438,79.558c-1.402,2.387-4.487,3.188-6.875,1.786c-2.388-1.401-3.19-4.486-1.788-6.873  c1.403-2.389,4.487-3.19,6.875-1.788C24.038,74.084,24.841,77.169,23.438,79.558z"></path><path d="M34.236,79.685c-1.403,2.389-4.487,3.19-6.875,1.788c-2.388-1.402-3.19-4.487-1.788-6.875  c1.403-2.389,4.487-3.19,6.875-1.788C34.836,74.211,35.639,77.296,34.236,79.685z"></path><path d="M39.663,70.444c-1.402,2.389-4.487,3.19-6.875,1.788c-2.388-1.402-3.19-4.487-1.787-6.875  c1.402-2.389,4.486-3.19,6.875-1.788C40.262,64.972,41.065,68.056,39.663,70.444z"></path><path d="M23.492,60.949c-1.403,2.389-4.487,3.19-6.875,1.788c-2.388-1.402-3.19-4.487-1.788-6.875  c1.402-2.389,4.487-3.19,6.875-1.788C24.092,55.476,24.895,58.561,23.492,60.949z"></path><path d="M34.29,61.076c-1.402,2.388-4.486,3.19-6.875,1.788c-2.388-1.402-3.19-4.487-1.788-6.876  c1.403-2.388,4.487-3.188,6.875-1.786C34.891,55.604,35.693,58.688,34.29,61.076z"></path><path d="M28.864,70.316c-1.403,2.388-4.487,3.189-6.875,1.788c-2.388-1.402-3.19-4.487-1.788-6.876  c1.402-2.387,4.487-3.188,6.875-1.786C29.464,64.845,30.267,67.929,28.864,70.316z"></path><path d="M18.066,70.189c-1.402,2.388-4.487,3.19-6.875,1.788c-2.388-1.402-3.19-4.487-1.789-6.876  c1.403-2.388,4.487-3.189,6.875-1.788C18.666,64.716,19.469,67.801,18.066,70.189z"></path><path d="M25,54.5c-0.827,0-1.498-0.669-1.5-1.496C23.496,52.335,23.304,46.5,18,46.5c-0.829,0-1.5-0.671-1.5-1.5s0.671-1.5,1.5-1.5  c6.724,0,8.5,6.214,8.5,9.5C26.5,53.828,25.829,54.5,25,54.5z"></path></svg>