<svg xmlns="http://www.w3.org/2000/svg" xmlns:xlink="http://www.w3.org/1999/xlink" version="1.1" x="0px" y="0px" viewBox="0 0 100 100" enable-background="new 0 0 100 100" xml:space="preserve"><path d="M89.684,44.687C89.684,22.769,71.914,5,49.999,5C28.081,5,10.314,22.769,10.314,44.687  c0,21.916,17.767,39.682,39.685,39.682C71.914,84.368,89.684,66.603,89.684,44.687z M49.999,12.585c5.213,0,9.441,4.229,9.441,9.441  c0,5.215-4.229,9.441-9.441,9.441c-5.211,0-9.44-4.227-9.44-9.441C40.559,16.813,44.788,12.585,49.999,12.585z M19.473,34.765  c1.606-4.956,6.938-7.673,11.896-6.061c4.956,1.612,7.673,6.933,6.058,11.895c-1.608,4.961-6.935,7.673-11.895,6.064  C20.573,45.051,17.856,39.722,19.473,34.765z M44.314,68.558c-3.061,4.221-8.967,5.155-13.187,2.093  c-4.216-3.066-5.153-8.97-2.087-13.188c3.062-4.223,8.971-5.155,13.187-2.089C46.445,58.438,47.383,64.342,44.314,68.558z   M40.559,44.687c0-5.216,4.229-9.439,9.44-9.439c5.213,0,9.441,4.224,9.441,9.439c0,5.211-4.229,9.439-9.441,9.439  C44.788,54.126,40.559,49.897,40.559,44.687z M68.865,70.646c-4.221,3.066-10.121,2.136-13.188-2.087  c-3.068-4.218-2.131-10.121,2.089-13.186c4.223-3.066,10.122-2.132,13.19,2.089C74.016,61.677,73.088,67.584,68.865,70.646z   M74.467,46.655c-4.963,1.612-10.287-1.103-11.899-6.061c-1.608-4.96,1.104-10.284,6.062-11.893  c4.954-1.613,10.285,1.098,11.896,6.056C82.137,39.716,79.424,45.047,74.467,46.655z"></path><path d="M67.969,59.753c-0.002-0.305,0.009-0.609,0.011-0.913c-0.554-0.618-1.198-1.133-1.937-1.488  c-0.075,0.768-0.147,1.537-0.203,2.32c-0.179,2.118-0.251,4.387-0.292,6.536c0.017,0.87,0.062,1.741,0.113,2.607  c0.475-0.181,0.938-0.401,1.357-0.708c0.52-0.377,0.944-0.836,1.319-1.334c-0.03-0.216-0.068-0.429-0.097-0.644  C68.035,63.952,67.949,61.896,67.969,59.753z"></path><path d="M66.672,38.018c-0.26-0.622-0.525-1.187-0.843-1.673c-0.097-0.176-0.195-0.339-0.299-0.498  c-0.042,0.15-0.07,0.305-0.104,0.457c0.034,0.071,0.07,0.131,0.103,0.204c0.271,0.493,0.489,1.063,0.69,1.681  c0.396,1.106,0.635,2.421,0.776,3.839c0.281,0.294,0.588,0.562,0.918,0.798c-0.02-0.154-0.023-0.322-0.047-0.472  C67.606,40.724,67.219,39.244,66.672,38.018z"></path><path d="M84.12,88.119c-0.402-0.12-0.847-0.253-1.331-0.396c-0.468-0.187-0.97-0.387-1.508-0.599  c-1.065-0.463-2.217-1.085-3.395-1.896c-0.599-0.399-1.147-0.9-1.759-1.381c-0.529-0.566-1.173-1.072-1.685-1.737  c-0.419-0.459-0.794-0.995-1.172-1.526c-1.222,0.795-2.493,1.524-3.8,2.195c0.412,0.746,0.832,1.486,1.321,2.157  c0.551,0.871,1.257,1.596,1.857,2.363c0.69,0.685,1.336,1.388,2.03,1.973c1.381,1.187,2.769,2.132,4.056,2.861  c0.651,0.343,1.261,0.682,1.84,0.96c0.587,0.249,1.125,0.472,1.616,0.678c0.974,0.429,1.778,0.604,2.312,0.798  c2.557,0.639,4.39,0.378,4.39,0.378l-2.873-6.391C86.021,88.557,84.905,88.381,84.12,88.119z"></path></svg>