<svg xmlns:dc="http://purl.org/dc/elements/1.1/" xmlns:cc="http://creativecommons.org/ns#" xmlns:rdf="http://www.w3.org/1999/02/22-rdf-syntax-ns#" xmlns:svg="http://www.w3.org/2000/svg" xmlns="http://www.w3.org/2000/svg" xmlns:sodipodi="http://sodipodi.sourceforge.net/DTD/sodipodi-0.dtd" xmlns:inkscape="http://www.inkscape.org/namespaces/inkscape" version="1.1" viewBox="0 0 100 100" x="0px" y="0px"><g transform="translate(0,-1100)"><path style="color:#000000;clip-rule:nonzero;display:inline;overflow:visible;visibility:visible;opacity:1;isolation:auto;mix-blend-mode:normal;color-interpolation:sRGB;color-interpolation-filters:linearRGB;solid-color:#000000;solid-opacity:1;fill:#000000;fill-opacity:1;fill-rule:nonzero;stroke:none;stroke-width:1;stroke-linecap:square;stroke-linejoin:miter;stroke-miterlimit:4;stroke-dasharray:none;stroke-dashoffset:0;stroke-opacity:1;marker:none;color-rendering:auto;image-rendering:auto;shape-rendering:auto;text-rendering:auto;enable-background:accumulate" d="m 66.657877,1119.7849 c -0.181955,-0.013 -0.36502,0 -0.550264,0.045 -6.411577,0.012 -9.170683,5.6299 -16.106431,6.4756 -6.935956,-0.8456 -9.694768,-6.4637 -16.106432,-6.4756 -0.197615,-0.046 -0.394109,-0.058 -0.58805,-0.04 -5.191437,0.4904 -9.005184,23.1558 -10.965126,40.2141 3.077456,2.4837 14.291287,4.3266 27.659608,4.3266 13.365456,0 24.577473,-1.8415 27.657247,-4.3242 -1.963925,-17.1003 -5.790784,-39.8418 -11.000552,-40.2212 z m -44.816973,44.4202 c -0.110962,0.017 -0.228899,0.032 -0.337715,0.05 -10.074908,1.6505 -16.50325,4.1566 -16.503188,6.9645 2.25e-4,4.9705 20.148519,9.0002 45.001181,9.0002 24.852663,0 44.998597,-4.0297 44.998817,-9.0002 6e-5,-2.7985 -6.387129,-5.2972 -16.403997,-6.948 -0.140158,-0.023 -0.291617,-0.043 -0.434543,-0.066 l 0.340077,3.0607 -0.0024,0 c -1.45e-4,3.1481 -12.757988,5.6986 -28.497993,5.6986 -15.740001,0 -28.500212,-2.5505 -28.500355,-5.6986 l 0.340077,-3.0607 z"></path></g></svg>