<svg xmlns="http://www.w3.org/2000/svg" xmlns:xlink="http://www.w3.org/1999/xlink" version="1.1" x="0px" y="0px" viewBox="0 0 100 100" enable-background="new 0 0 100 100" xml:space="preserve"><path d="M52.982,95c-0.001,0-0.001,0-0.002,0h-3.642C19.885,95,9.698,93.328,9.698,64.764c0-12.549,2.531-48.861,7.224-59.084  L17.184,5h65.117l0.262,0.57c4.692,10.231,7.225,46.541,7.225,59.13c0,14.201-2.613,22.154-8.738,26.085  C75.237,94.514,66.568,95,52.982,95z M18.453,7c-4.159,10-6.798,43.348-6.798,57.764C11.655,91.632,20.088,93,49.339,93h3.642  c13.229,0,21.65-0.443,27.012-3.885c5.494-3.523,7.838-10.844,7.838-24.295C87.83,51.948,85.269,17,81.031,7H18.453z"></path><path d="M83.875,40H15.5c0,0-1.038,12.037-1.038,15.849c0,25.571,9.312,26.44,34.916,26.44c25.606,0,35.647,0.292,35.647-26.409  C85.024,52.064,83.875,40,83.875,40z M45.683,54.231l4.57,19.986c0.083,0.365,0.226,0.7,0.396,1.015l-0.571,2.666  c-0.208,0.972-1.208,1.625-2.189,1.416l-20.154-4.315c-0.481-0.104-0.894-0.388-1.162-0.801c-0.268-0.414-0.358-0.907-0.255-1.389  l4.268-19.927c0.181-0.845,0.938-1.458,1.801-1.458c0.129,0,0.259,0.014,0.386,0.041L45.683,54.231z M47.84,54.693l5.089,1.091  c0.482,0.104,0.896,0.388,1.163,0.802c0.267,0.412,0.356,0.903,0.253,1.385l-2.784,13.001L47.84,54.693z M56.301,58.391  c0.216-1.002,0.028-2.029-0.528-2.891c-0.558-0.863-1.419-1.456-2.424-1.671L47.4,52.555c-0.008-0.908,0.612-1.735,1.532-1.945  l21.041-4.809c0.146-0.034,0.296-0.051,0.443-0.051c0.909,0,1.716,0.645,1.918,1.535l4.758,20.797  c0.118,0.514,0.028,1.043-0.253,1.49c-0.28,0.447-0.719,0.759-1.234,0.877L54.569,75.26c-0.644,0.146-1.308-0.063-1.775-0.49  L56.301,58.391z"></path></svg>