<svg xmlns="http://www.w3.org/2000/svg" xmlns:xlink="http://www.w3.org/1999/xlink" version="1.1" x="0px" y="0px" viewBox="0 0 95 95" enable-background="new 0 0 95 95" xml:space="preserve"><path d="M68.343,57.118c0.169-0.306,0.14-0.275,0.295-0.584c0.1-0.03,0.261-0.064,0.36-0.097c7.99-2.513-0.286-45.944-0.286-45.944  l-17.811,2.453c0,0,3.751,44.183,12.219,44.341c0.097,0.002,0.194-0.001,0.291,0c0.146,0.148,0.291,0.299,0.44,0.445  c1.05,1.024,1.538,1.417,1.729,2.868c0.766,5.811,1.718,12.872,2.58,18.667c0.275,1.839-0.299,2.824-1.755,3.82  c-1.372,0.943-2.931,1.611-4.412,2.391c-0.853,0.447-1.787,0.775-2.553,1.334c-0.906,0.661-0.792,1.49,0.218,1.951  c0.797,0.362,1.651,0.64,2.509,0.811c3.702,0.742,7.381,0.433,11.03-0.389c2.604-0.588,5.133-1.388,7.255-3.089  c0.376-0.303,0.789-0.923,0.722-1.313c-0.071-0.403-0.661-0.863-1.116-1.014c-0.789-0.26-1.655-0.262-2.474-0.436  c-1.679-0.356-3.396-0.615-5.007-1.174c-1.406-0.486-2.339-1.562-2.553-3.175c-0.812-6.101-1.928-12.562-2.517-18.687  C67.343,58.575,67.832,58.046,68.343,57.118z"></path><path d="M36.149,57.703c0.247-0.247,0.21-0.227,0.446-0.479c0.104-0.002,0.268,0.011,0.373,0.007  c8.374-0.187,12.527-44.205,12.527-44.205l-17.787-2.607c0,0-8.711,43.478-0.623,45.99c0.093,0.028,0.187,0.053,0.279,0.081  c0.099,0.184,0.196,0.368,0.299,0.55c0.723,1.276,1.082,1.79,0.862,3.237c-0.885,5.793-1.938,12.841-2.724,18.646  c-0.249,1.843-1.074,2.629-2.75,3.181c-1.581,0.522-3.264,0.73-4.904,1.065c-0.943,0.192-1.932,0.247-2.824,0.57  c-1.054,0.382-1.175,1.21-0.334,1.934c0.665,0.57,1.409,1.075,2.184,1.479c3.349,1.745,6.968,2.472,10.702,2.699  c2.664,0.162,5.316,0.099,7.828-0.943c0.446-0.186,1.015-0.667,1.059-1.062c0.044-0.407-0.394-1.013-0.79-1.284  c-0.684-0.469-1.515-0.713-2.254-1.107c-1.513-0.81-3.09-1.537-4.481-2.522c-1.214-0.858-1.811-2.152-1.567-3.761  c0.92-6.085,1.649-12.602,2.791-18.646C34.781,58.823,35.399,58.45,36.149,57.703z"></path><circle cx="65.402" cy="5.292" r="0.987"></circle><circle cx="62.164" cy="8.25" r="1.491"></circle><circle cx="34.954" cy="4.633" r="0.988"></circle><circle cx="38.342" cy="8.379" r="1.491"></circle></svg>