<svg xmlns="http://www.w3.org/2000/svg" xmlns:xlink="http://www.w3.org/1999/xlink" version="1.1" x="0px" y="0px" viewBox="0 0 100 100" enable-background="new 0 0 100 100" xml:space="preserve"><path d="M21.096,26.45c-0.473,1.289-0.725,2.618-0.725,3.922c0,9.042,11.735,15.075,26.553,15.075  c14.819,0,27.11-6.127,27.11-15.167c0-1.283-0.245-2.577-0.704-3.83H21.096z"></path><path d="M50.19,47.979c15.2-0.929,26.28-8.069,26.28-17.336c0-4.16-2.089-8.447-5.447-11.188l-0.126-0.102H23.304l-0.125,0.102  c-3.36,2.742-5.446,7.054-5.446,11.253c0,9.563,11.033,16.631,26.575,17.317c0.534,0.247,1.104,0.513,1.314,1.075  c0,0-1.27,0.372-1.704,1.572v0.762c0.706,1.525,1.888,1.557,1.888,1.557s-0.037,29.521,0,30.425  c0.068,1.655-1.282,2.021-1.484,2.172c-1.029,0.763-10.223,2.746-10.223,2.746h26.206c0,0-9.195-1.983-10.225-2.746  c-0.201-0.15-1.551-0.517-1.482-2.172c0.037-0.904,0-30.425,0-30.425s1.181-0.031,1.887-1.557v-0.763  c-0.432-1.2-1.703-1.572-1.703-1.572C49.003,48.503,49.631,48.24,50.19,47.979z M18.637,30.708c0-3.883,1.909-7.873,4.991-10.451  h46.948c3.083,2.578,4.992,6.542,4.992,10.386c0,9.428-12.367,16.538-28.766,16.538C30.483,47.181,18.637,40.253,18.637,30.708z"></path><g><g><path fill="#000000" d="M72.009,9.661c-2.002-0.013-4.439,0.989-4.106,1.58c0.255,0.454,4.106,7.114,4.106,7.114    s3.854-6.661,4.108-7.114C76.45,10.648,74.011,9.647,72.009,9.661z"></path><path d="M72.009,9.661c-2.002-0.013-4.439,0.989-4.106,1.58c0.255,0.454,4.106,7.114,4.106,7.114s3.854-6.661,4.108-7.114    C76.45,10.648,74.011,9.647,72.009,9.661z"></path></g><g><path fill="#000000" d="M79.87,14.199c1.012,1.727,1.363,4.34,0.686,4.348c-0.521,0.005-8.215-0.001-8.215-0.001    s3.842-6.667,4.106-7.114C76.794,10.848,78.88,12.458,79.87,14.199z"></path><path d="M79.87,14.199c1.012,1.727,1.363,4.34,0.686,4.348c-0.521,0.005-8.215-0.001-8.215-0.001s3.842-6.667,4.106-7.114    C76.794,10.848,78.88,12.458,79.87,14.199z"></path></g><g><g><path fill="#000000" d="M79.87,23.273c1.012-1.728,1.363-4.339,0.686-4.348c-0.52-0.003-8.215,0.002-8.215,0.002     s3.842,6.665,4.107,7.113C76.794,26.624,78.882,25.015,79.87,23.273z"></path><path d="M79.87,23.273c1.012-1.728,1.363-4.339,0.686-4.348c-0.52-0.003-8.215,0.002-8.215,0.002s3.842,6.665,4.107,7.113     C76.794,26.624,78.882,25.015,79.87,23.273z"></path></g><g><path fill="#000000" d="M64.151,14.198c0.988-1.739,3.076-3.351,3.422-2.767c0.266,0.448,4.105,7.114,4.105,7.114     s-7.692,0.006-8.213,0.001C62.787,18.539,63.138,15.926,64.151,14.198z"></path><path d="M64.151,14.198c0.988-1.739,3.076-3.351,3.422-2.767c0.266,0.448,4.105,7.114,4.105,7.114s-7.692,0.006-8.213,0.001     C62.787,18.539,63.138,15.926,64.151,14.198z"></path></g></g></g><path d="M72.009,7.554c-5.844,0-10.646,4.508-11.133,10.229h0.951c0.482-5.196,4.862-9.277,10.182-9.277  c5.642,0,10.23,4.589,10.23,10.23c0,3.846-2.136,7.2-5.281,8.947l0.188,0.974c3.587-1.864,6.046-5.608,6.046-9.921  C83.191,12.57,78.175,7.554,72.009,7.554z"></path></svg>