<svg xmlns="http://www.w3.org/2000/svg" data-name="Layer 2" viewBox="0 0 100 100" x="0px" y="0px"><defs><style>.cls-1{fill:#231f20;}</style></defs><title>Liqour Cabinet Icons</title><path class="cls-1" d="M24.89,57.67L23.44,87.53a2.45,2.45,0,0,0,2.45,2.57H74.12a2.45,2.45,0,0,0,2.45-2.57L75.11,57.67C74.83,51.83,71.43,46,66.85,43.58L62.17,41a6.9,6.9,0,0,1-3.78-6.08l-0.24-9.76,1.75-.26a2.44,2.44,0,0,0-.22-4.86l-0.6,0,0.15-.59a9.51,9.51,0,1,0-18.74-2.3,9.35,9.35,0,0,0,.3,2.3L40.93,20l-0.61,0a2.44,2.44,0,0,0-.23,4.86l1.75,0.25-0.23,9.76A6.9,6.9,0,0,1,37.83,41l-4.67,2.55C28.57,46,25.17,51.83,24.89,57.67ZM50,9.63a7.51,7.51,0,0,1,7.06,10.09l-0.12.33H43.08L43,19.73a7.44,7.44,0,0,1-.48-2.58A7.52,7.52,0,0,1,50,9.63ZM41.71,23.15l-1.29-.09,0-1H50l9.52-.1,0.08,1-1.32.2a2.5,2.5,0,0,0-2.12,2.52l0.12,5.23H43.71l0.12-5.23A2.5,2.5,0,0,0,41.71,23.15Zm-7.6,22.19,4.68-2.55A8.9,8.9,0,0,0,43.62,35l0-2.09H56.33l0,2.09a8.9,8.9,0,0,0,4.82,7.79l4.69,2.56c4,2.14,7,7.25,7.22,12.42L74.64,88.1H50l-24.59.05,1.48-30.39C27.13,52.59,30.11,47.48,34.12,45.33Z"></path><path class="cls-1" d="M66.93,63.06l-4.11-3.23H37.18l-4.11,3.23V80.44l3.48,3.27H63.46l3.48-3.27V63.06Zm-2,16.27-2,2.37H37.11l-2-2.37V64.24l2.62-2.41H62.31l2.62,2.41v15.1Z"></path><path class="cls-1" d="M59.51,49.5l-2.63-1.86H43.12L40.49,49.5v3.87l2.46,2h14.1l2.46-2V49.5Zm-2,2.92-1.18,1H43.67l-1.18-1V50.54l1.26-.89h12.5l1.26,0.89v1.88Z"></path></svg>