<svg xmlns="http://www.w3.org/2000/svg" data-name="Layer 1" viewBox="0 0 100 100" x="0px" y="0px"><title>PartyPack_10Icon_10px_grid</title><path d="M85.26,18.58a1,1,0,0,0-.72-1.7H71.92l5.9-6.22a1,1,0,0,0-1.45-1.38l-7.21,7.59H15.91a1,1,0,0,0-.72,1.7l32,33V85l-9.83,5.59a1,1,0,0,0,.49,1.87H62.64a1,1,0,0,0,.49-1.87L53.3,85V51.53ZM51.8,86.45l7.05,4H41.59l7.05-4a1,1,0,0,0,.51-0.87V51.13a1,1,0,0,0-.28-0.7L18.27,18.88h49l-7,7.4a6.33,6.33,0,0,0-8.63,9.1l-2.67,2.82a1,1,0,0,0,1.45,1.38l2.69-2.84a6.33,6.33,0,0,0,8.59-9L70,18.88H82.18L51.58,50.43a1,1,0,0,0-.28.7V85.58A1,1,0,0,0,51.8,86.45Zm9.11-55a4.35,4.35,0,0,1-4.34,4.34,4.29,4.29,0,0,1-2.07-.55l5.76-6.06A4.3,4.3,0,0,1,60.91,31.45Zm-8.68,0a4.35,4.35,0,0,1,4.34-4.34,4.3,4.3,0,0,1,2.27.66L53,33.91A4.31,4.31,0,0,1,52.22,31.45Z"></path></svg>