<svg xmlns="http://www.w3.org/2000/svg" xmlns:xlink="http://www.w3.org/1999/xlink" version="1.1" x="0px" y="0px" viewBox="0 0 100 100" enable-background="new 0 0 100 100" xml:space="preserve"><g display="none"><rect x="5" y="5" display="inline" fill="#000000" width="90" height="90"></rect></g><g><g><path fill="#000000" d="M38.5,28.1c3.5,0,6.4-2.9,6.4-6.4c0-3.5-2.9-6.4-6.4-6.4s-6.4,2.9-6.4,6.4C32.1,25.2,35,28.1,38.5,28.1z     M38.5,18.4c1.8,0,3.3,1.5,3.3,3.3c0,1.8-1.5,3.3-3.3,3.3c-1.8,0-3.3-1.5-3.3-3.3C35.2,19.9,36.7,18.4,38.5,18.4z"></path><path fill="#000000" d="M50.5,39.8c3,0,5.5-2.5,5.5-5.5s-2.5-5.5-5.5-5.5c-3,0-5.5,2.5-5.5,5.5S47.4,39.8,50.5,39.8z M50.5,31.9    c1.3,0,2.4,1.1,2.4,2.4s-1.1,2.4-2.4,2.4c-1.3,0-2.4-1.1-2.4-2.4S49.1,31.9,50.5,31.9z"></path><path fill="#000000" d="M58.7,22.8c2.4,0,4.4-2,4.4-4.4s-2-4.4-4.4-4.4c-2.4,0-4.4,2-4.4,4.4S56.2,22.8,58.7,22.8z M58.7,17    c0.7,0,1.4,0.6,1.4,1.4c0,0.7-0.6,1.4-1.4,1.4s-1.4-0.6-1.4-1.4C57.3,17.6,57.9,17,58.7,17z"></path><path fill="#000000" d="M95,50.6c0-23.9-15.8-26.5-22.6-26.5c-0.2,0-0.3,0-0.5,0c0.2-0.5,0.4-1,0.6-1.5c1.2-3.7,0.7-8.9-3-11.7    c-1.8-1.4-4.2-2-7.4-2c-0.2,0-0.5,0-0.7,0c-1.7,0-3.4,0.2-5,0.4c-2.2,0.2-4.2,0.4-6.3,0.3c-2.7-0.1-5.3-0.6-8.1-1.1    c-1.9-0.4-4-0.8-6-1c-1.5-0.2-3.1-0.3-4.8-0.3c-4.7,0-9.3,0.7-13.5,1.4c-3.4,0.6-6.9,1.3-9.6,3.6c-2.9,2.5-4.5,7.2-2,10.6    c0.9,1.2,2.2,2,3.3,2.6c0.7,0.4,1.4,0.9,2,1.4c0.4,0.4,0.8,0.9,1.2,1.4c0.3,0.4,0.6,0.7,0.9,1.1v48.3c0,0.9-0.3,1.7-0.9,2.4    L11,81.7c-1.1,1.2-1.8,2.8-1.8,4.5c0,3.6,2.9,6.6,6.6,6.6h50.1c3.6,0,6.6-2.9,6.6-6.6c0-1.7-0.6-3.3-1.8-4.5l-1.7-1.8    c-0.2-0.2-0.4-0.5-0.5-0.7c0.3,0,0.6,0,1,0C75.5,79.3,95,77.2,95,50.6z M11.2,22.8c-1-0.6-1.9-1.1-2.4-1.9    c-1.4-1.9-0.3-4.9,1.5-6.4c2.1-1.8,5.1-2.4,8.1-2.9c4.1-0.7,8.5-1.4,13-1.4c1.5,0,3,0.1,4.4,0.2c1.9,0.2,3.9,0.6,5.7,1    c2.8,0.5,5.6,1.1,8.6,1.2c2.3,0.1,4.5-0.1,6.7-0.4c1.6-0.1,3.2-0.3,4.8-0.3c0.2,0,0.4,0,0.6,0c2.5,0,4.3,0.4,5.5,1.4    c2.5,1.9,2.7,5.6,1.9,8.3c-1,3-3.1,5.7-5.2,8.3L64,30.3c-2.4,3-4.8,6.2-5.7,10.1C58,42.2,58,44,58,45.8c0,2.4,0,4.7-0.9,6.6    c-1.1,2.2-3.6,3.7-6.3,3.7c-0.8,0-1.5-0.1-2.2-0.4c-4.4-1.7-5.9-7.4-5.8-11.8l0-0.8c0-1.7,0.1-3.6-0.7-5.4    c-1.6-3.5-5.3-4.6-8.6-5.6c-2.9-0.9-5.7-1.7-6.7-3.9l-0.9-1.9l-1.6,1.4c-1,0.9-2.4,1.4-3.9,1.4c-1.6,0-3.1-0.6-4.1-1.6    c-0.4-0.4-0.7-0.8-1.1-1.2c-0.5-0.6-0.9-1.2-1.5-1.7C12.8,23.9,12,23.3,11.2,22.8z M68.3,38.2c0.2-2.4,2.8-3.6,7.2-3.1    c5.1,0.6,7.5,8.1,7.7,14.9c0.2,7.8-2.6,16.1-8.3,17c0,0-0.5,0.1-1.3,0.1c-1.4,0-3.9-0.3-5.4-1.9V38.7l0.1,0V38.2z M53.6,69.1    c0,1.7-1.4,3.1-3.1,3.1s-3.1-1.4-3.1-3.1c0-1.7,1.4-3.1,3.1-3.1S53.6,67.4,53.6,69.1z M41.1,61.1c0,1.5-1.2,2.7-2.7,2.7    c-1.5,0-2.7-1.2-2.7-2.7c0-1.5,1.2-2.7,2.7-2.7C39.9,58.5,41.1,59.6,41.1,61.1z M69.4,86.2c0,1.9-1.6,3.5-3.5,3.5H15.8    c-1.9,0-3.5-1.6-3.5-3.5c0-0.9,0.3-1.7,0.9-2.4l1.7-1.8c1.1-1.2,1.8-2.8,1.8-4.5V31.5c1.1,0.5,2.4,0.7,3.6,0.7    c1.6,0,3.2-0.4,4.5-1.2c1.9,2.3,4.9,3.2,7.7,4.1c1.1,0.3,2.2,0.7,3.2,1.1H20.2v43.6c0,0,6.8,2.1,20.7,2.1    c13.9,0,20.7-2.1,20.7-2.1V40.4c0.6-2.3,1.9-4.4,3.5-6.4v43.6c0,1.7,0.6,3.3,1.8,4.5l1.7,1.8C69.1,84.5,69.4,85.3,69.4,86.2z     M28.8,47.1c0-1.9,1.5-3.4,3.4-3.4s3.4,1.5,3.4,3.4c0,1.9-1.5,3.4-3.4,3.4S28.8,49,28.8,47.1z M30.9,56.4c0,1.3-1,2.3-2.3,2.3    c-1.3,0-2.3-1-2.3-2.3c0-1.3,1-2.3,2.3-2.3C29.9,54.1,30.9,55.2,30.9,56.4z M68.3,76.2V69c1.9,0.9,3.9,1.1,5.2,1.1    c1,0,1.7-0.1,1.8-0.1c7.8-1.2,11.1-11.2,10.9-20.1C86,41.6,82.8,32.8,75.8,32c-0.8-0.1-1.6-0.1-2.3-0.1c-2.4,0-4.1,0.5-5.3,1.2V30    c0.7-0.9,1.4-1.8,2-2.7c0.7-0.1,1.4-0.1,2.2-0.1c8.9,0,19.5,4.1,19.5,23.4c0,23.1-15.6,25.6-22.4,25.6    C69.1,76.2,68.6,76.2,68.3,76.2z"></path></g></g></svg>