<svg xmlns="http://www.w3.org/2000/svg" xmlns:xlink="http://www.w3.org/1999/xlink" version="1.1" x="0px" y="0px" viewBox="0 0 512 512" enable-background="new 0 0 512 512" xml:space="preserve"><g><path fill="#000000" d="M135.967,274.219c4.172-4.18,4.172-10.93,0-15.094c-4.156-4.172-10.922-4.172-15.078,0   c-4.172,4.164-4.172,10.914,0,15.094C125.045,278.375,131.811,278.375,135.967,274.219z"></path><path fill="#000000" d="M178.637,274.219c4.172-4.18,4.172-10.93,0-15.094c-4.171-4.172-10.921-4.172-15.077,0   c-4.172,4.164-4.172,10.914,0,15.094C167.716,278.375,174.466,278.375,178.637,274.219z"></path><path fill="#000000" d="M221.309,274.219c4.156-4.18,4.156-10.93,0-15.094c-4.172-4.172-10.922-4.172-15.094,0   c-4.156,4.164-4.156,10.914,0,15.094C210.387,278.375,217.137,278.375,221.309,274.219z"></path><path fill="#000000" d="M263.965,274.219c4.171-4.18,4.171-10.93,0-15.094c-4.156-4.172-10.906-4.172-15.078,0   c-4.172,4.164-4.172,10.914,0,15.094C253.059,278.375,259.809,278.375,263.965,274.219z"></path><path fill="#000000" d="M306.635,274.219c4.172-4.18,4.172-10.93,0-15.094c-4.172-4.172-10.922-4.172-15.077,0   c-4.172,4.164-4.172,10.914,0,15.094C295.713,278.375,302.463,278.375,306.635,274.219z"></path><path fill="#000000" d="M349.307,274.219c4.156-4.18,4.156-10.93,0-15.094c-4.172-4.172-10.922-4.172-15.094,0   c-4.156,4.164-4.156,10.914,0,15.094C338.385,278.375,345.135,278.375,349.307,274.219z"></path><path fill="#000000" d="M376.885,259.125c-4.172,4.164-4.172,10.914,0,15.094c4.172,4.156,10.921,4.156,15.077,0   c4.172-4.18,4.172-10.93,0-15.094C387.806,254.953,381.057,254.953,376.885,259.125z"></path><path fill="#000000" d="M142.217,301.779c-4.156,4.172-4.156,10.938,0,15.094c4.172,4.156,10.921,4.156,15.093,0   c4.156-4.156,4.156-10.922,0-15.094C153.138,297.623,146.389,297.623,142.217,301.779z"></path><path fill="#000000" d="M114.639,301.779c-4.172-4.156-10.922-4.156-15.078,0c-4.172,4.172-4.172,10.938,0,15.094   c4.156,4.156,10.906,4.156,15.078,0S118.811,305.951,114.639,301.779z"></path><path fill="#000000" d="M184.887,301.779c-4.172,4.172-4.172,10.938,0,15.094c4.156,4.156,10.922,4.156,15.078,0   c4.172-4.156,4.172-10.922,0-15.094C195.809,297.623,189.043,297.623,184.887,301.779z"></path><path fill="#000000" d="M227.559,301.779c-4.172,4.172-4.172,10.938,0,15.094c4.156,4.156,10.906,4.156,15.078,0   s4.172-10.922,0-15.094C238.465,297.623,231.715,297.623,227.559,301.779z"></path><path fill="#000000" d="M270.214,301.779c-4.156,4.172-4.156,10.938,0,15.094c4.172,4.156,10.922,4.156,15.094,0   c4.156-4.156,4.156-10.922,0-15.094C281.136,297.623,274.386,297.623,270.214,301.779z"></path><path fill="#000000" d="M312.885,301.779c-4.172,4.172-4.172,10.938,0,15.094s10.922,4.156,15.078,0   c4.172-4.156,4.172-10.922,0-15.094C323.807,297.623,317.057,297.623,312.885,301.779z"></path><path fill="#000000" d="M355.557,301.779c-4.172,4.172-4.172,10.938,0,15.094c4.156,4.156,10.906,4.156,15.078,0   s4.172-10.922,0-15.094C366.463,297.623,359.713,297.623,355.557,301.779z"></path><path fill="#000000" d="M398.212,316.873c4.172,4.156,10.922,4.156,15.093,0c4.156-4.156,4.156-10.922,0-15.094   c-4.171-4.156-10.921-4.156-15.093,0C394.056,305.951,394.056,312.717,398.212,316.873z"></path><path fill="#000000" d="M135.967,344.451c-4.156-4.172-10.922-4.172-15.078,0c-4.172,4.172-4.172,10.922,0,15.078   c4.156,4.188,10.922,4.188,15.078,0C140.139,355.373,140.139,348.623,135.967,344.451z"></path><path fill="#000000" d="M178.637,359.529c4.172-4.156,4.172-10.906,0-15.078c-4.171-4.172-10.921-4.172-15.077,0   c-4.172,4.172-4.172,10.922,0,15.078C167.716,363.717,174.466,363.717,178.637,359.529z"></path><path fill="#000000" d="M221.309,359.529c4.156-4.156,4.156-10.906,0-15.078c-4.172-4.172-10.922-4.172-15.094,0   c-4.156,4.172-4.156,10.922,0,15.078C210.387,363.717,217.137,363.717,221.309,359.529z"></path><path fill="#000000" d="M263.965,359.529c4.171-4.156,4.171-10.906,0-15.078c-4.156-4.172-10.906-4.172-15.078,0   s-4.172,10.922,0,15.078C253.059,363.717,259.809,363.717,263.965,359.529z"></path><path fill="#000000" d="M306.635,359.529c4.172-4.156,4.172-10.906,0-15.078s-10.922-4.172-15.077,0   c-4.172,4.172-4.172,10.922,0,15.078C295.713,363.717,302.463,363.717,306.635,359.529z"></path><path fill="#000000" d="M349.307,359.529c4.156-4.156,4.156-10.906,0-15.078c-4.172-4.172-10.922-4.172-15.094,0   c-4.156,4.172-4.156,10.922,0,15.078C338.385,363.717,345.135,363.717,349.307,359.529z"></path><path fill="#000000" d="M376.885,344.451c-4.172,4.172-4.172,10.922,0,15.078c4.172,4.188,10.921,4.188,15.077,0   c4.172-4.156,4.172-10.906,0-15.078C387.806,340.279,381.057,340.279,376.885,344.451z"></path><path fill="#000000" d="M149.372,384.014c-2.858-0.109-5.749,0.922-7.921,3.109c-4.172,4.156-4.172,10.906,0,15.094   c2.172,2.172,5.062,3.188,7.921,3.094c2.859,0.094,5.75-0.922,7.938-3.094c4.156-4.188,4.156-10.938,0-15.094   C155.122,384.936,152.231,383.904,149.372,384.014z"></path><path fill="#000000" d="M184.887,387.123c-4.172,4.156-4.172,10.906,0,15.094c4.156,4.156,10.922,4.156,15.078,0   c4.172-4.188,4.172-10.938,0-15.094C195.809,382.967,189.043,382.967,184.887,387.123z"></path><path fill="#000000" d="M227.559,387.123c-4.172,4.156-4.172,10.906,0,15.094c4.156,4.156,10.906,4.156,15.078,0   c4.172-4.188,4.172-10.938,0-15.094S231.715,382.967,227.559,387.123z"></path><path fill="#000000" d="M270.214,387.123c-4.156,4.156-4.156,10.906,0,15.094c4.172,4.156,10.922,4.156,15.094,0   c4.156-4.188,4.156-10.938,0-15.094C281.136,382.967,274.386,382.967,270.214,387.123z"></path><path fill="#000000" d="M312.885,387.123c-4.172,4.156-4.172,10.906,0,15.094c4.172,4.156,10.922,4.156,15.078,0   c4.172-4.188,4.172-10.938,0-15.094C323.807,382.967,317.057,382.967,312.885,387.123z"></path><path fill="#000000" d="M355.557,387.123c-4.172,4.156-4.172,10.906,0,15.094c4.156,4.156,10.906,4.156,15.078,0   c4.172-4.188,4.172-10.938,0-15.094S359.713,382.967,355.557,387.123z"></path><path fill="#000000" d="M163.56,429.777c-4.172,4.172-4.172,10.938,0,15.094c4.156,4.156,10.906,4.156,15.077,0   c4.172-4.156,4.172-10.922,0-15.094C174.466,425.621,167.716,425.621,163.56,429.777z"></path><path fill="#000000" d="M206.215,429.777c-4.156,4.172-4.156,10.938,0,15.094c4.172,4.156,10.922,4.156,15.094,0   c4.156-4.156,4.156-10.922,0-15.094C217.137,425.621,210.387,425.621,206.215,429.777z"></path><path fill="#000000" d="M248.887,429.777c-4.172,4.172-4.172,10.938,0,15.094s10.922,4.156,15.078,0   c4.171-4.156,4.171-10.922,0-15.094C259.809,425.621,253.059,425.621,248.887,429.777z"></path><path fill="#000000" d="M291.558,429.777c-4.172,4.172-4.172,10.938,0,15.094c4.155,4.156,10.905,4.156,15.077,0   s4.172-10.922,0-15.094C302.463,425.621,295.713,425.621,291.558,429.777z"></path><path fill="#000000" d="M334.213,429.777c-4.156,4.172-4.156,10.938,0,15.094c4.172,4.156,10.922,4.156,15.094,0   c4.156-4.156,4.156-10.922,0-15.094C345.135,425.621,338.385,425.621,334.213,429.777z"></path><path fill="#000000" d="M393.556,190.595c-0.312-0.273-0.641-0.516-0.984-0.75c-6.688-8.312-20.562-14.968-41.921-20.171   c-7.078-1.727-14.797-3.234-23-4.516l18.797-37.093l85.623,43.406c1.547,0.781,3.188,1.156,4.828,1.156   c2.922,0,5.812-1.211,7.891-3.484c3.219-3.539,3.688-8.805,1.141-12.859L382.947,56.082l6.905-13.641   c2.672-5.258,0.562-11.672-4.688-14.335c-5.249-2.664-11.671-0.57-14.327,4.687l-6.922,13.641l-118.061,8.43   c-4.781,0.336-8.75,3.828-9.688,8.523c-0.953,4.703,1.359,9.461,5.625,11.625l85.639,43.405l-22.266,43.921   c-15.702-1.531-32.577-2.336-49.92-2.336c-15.141,0-29.922,0.609-43.875,1.781L159.872,7.293c-0.016-0.086-0.062-0.156-0.094-0.242   c-0.078-0.219-0.156-0.438-0.25-0.648c-0.062-0.141-0.125-0.273-0.188-0.406c-0.094-0.172-0.172-0.344-0.266-0.516   s-0.203-0.336-0.297-0.5c-0.078-0.125-0.156-0.25-0.25-0.375c-0.125-0.195-0.266-0.375-0.422-0.555   c-0.047-0.07-0.094-0.148-0.156-0.211c-0.016-0.031-0.047-0.055-0.062-0.078c-0.156-0.18-0.312-0.344-0.484-0.516   c-0.078-0.094-0.172-0.188-0.266-0.273c-0.141-0.141-0.297-0.266-0.438-0.391c-0.125-0.109-0.25-0.219-0.375-0.32   c-0.109-0.086-0.234-0.172-0.359-0.258c-0.172-0.117-0.328-0.242-0.5-0.352c-0.094-0.055-0.188-0.109-0.281-0.164   c-0.203-0.117-0.406-0.242-0.625-0.344c-0.094-0.047-0.172-0.086-0.266-0.125c-0.219-0.102-0.438-0.203-0.656-0.289   c-0.125-0.047-0.266-0.086-0.391-0.133c-0.188-0.062-0.375-0.133-0.562-0.188s-0.375-0.094-0.562-0.133   c-0.141-0.031-0.281-0.07-0.422-0.102c-0.234-0.039-0.453-0.062-0.688-0.094c-0.109-0.008-0.219-0.031-0.328-0.039   c-0.219-0.023-0.453-0.023-0.672-0.031c-0.125,0-0.234-0.007-0.359-0.007c-0.203,0-0.391,0.015-0.594,0.031   c-0.156,0.008-0.312,0.016-0.469,0.031s-0.297,0.047-0.453,0.07c-0.203,0.031-0.406,0.062-0.609,0.102   c-0.109,0.023-0.233,0.062-0.358,0.086c-0.234,0.062-0.453,0.125-0.688,0.195c-0.031,0.016-0.062,0.016-0.094,0.031   c-0.078,0.023-0.156,0.062-0.234,0.086c-0.219,0.078-0.438,0.164-0.656,0.258c-0.141,0.062-0.266,0.125-0.406,0.188   c-0.172,0.086-0.344,0.172-0.516,0.273c-0.172,0.094-0.328,0.195-0.5,0.297c-0.125,0.078-0.25,0.156-0.375,0.242   c-0.203,0.133-0.375,0.273-0.562,0.422c-0.062,0.055-0.141,0.102-0.203,0.156l-64,53.335c-4.531,3.765-5.141,10.492-1.375,15.023   c2.109,2.531,5.156,3.836,8.203,3.836c2.406,0,4.828-0.812,6.828-2.477l52-43.327l45.092,135.294   c-10.797,1.469-20.843,3.32-29.858,5.516c-21.155,5.156-34.968,11.742-41.733,19.953c-0.469,0.289-0.906,0.602-1.328,0.969   c-32.281,27.875-52.328,76.069-52.328,125.778c0,49.359,20.297,98.936,55.688,136.061c17.609,18.469,37.983,33.031,60.529,43.281   c23.75,10.812,48.828,16.281,74.5,16.281c25.687,0,50.764-5.469,74.514-16.281c22.547-10.25,42.922-24.812,60.53-43.281   c35.39-37.125,55.687-86.701,55.687-136.061C445.883,266.664,425.836,218.469,393.556,190.595z M365.072,67.737l42.296,67.296   l-121.576-61.64L365.072,67.737z M255.246,181.329c13.562,0,26.874,0.523,39.514,1.516l-4.64,9.156h-68.671l-3.125-9.359   C230.184,181.782,242.605,181.329,255.246,181.329z M170.091,189.196c8.077-1.75,16.968-3.234,26.468-4.422l2.406,7.227h-17.016   c-5.89,0-10.671,4.773-10.671,10.664c0,5.89,4.781,10.664,10.671,10.664h31.734c0.031,0,0.047,0.008,0.078,0.008   c0.016,0,0.047-0.008,0.078-0.008h82.748c0.031,0,0.047,0.008,0.078,0.008c0.016,0,0.047-0.008,0.062-0.008h34.219   c5.891,0,10.672-4.773,10.672-10.664c0-5.891-4.781-10.664-10.672-10.664h-16.906l3.422-6.766   c8.172,1.109,15.859,2.43,22.922,3.961c23.297,5.062,32.562,10.805,35.062,13.469c-2.5,2.664-11.766,8.406-35.062,13.468   c-23.359,5.07-53.593,7.867-85.139,7.867c-31.562,0-61.797-2.797-85.155-7.867c-23.296-5.062-32.562-10.804-35.062-13.468   C137.529,200.001,146.795,194.259,170.091,189.196z M422.477,342.389c-1.047,0.516-2.047,1.188-2.922,2.062   c-3.969,3.969-4.156,10.266-0.578,14.453c-2.375,9-5.484,17.766-9.233,26.219c-4-2-8.969-1.328-12.297,2   c-4.172,4.156-4.172,10.906,0,15.094c0.75,0.75,1.609,1.375,2.5,1.844c-4.719,7.938-10.016,15.498-15.859,22.623   c-2.608,0.078-5.202,1.094-7.202,3.094c-2.312,2.312-3.328,5.438-3.078,8.438c-13.406,13.812-28.906,25.469-45.828,34.25   c0,0-0.016,0-0.016-0.016c-4.156-4.172-10.906-4.172-15.078,0c-2.234,2.234-3.25,5.203-3.094,8.109   c-7.984,3-16.202,5.391-24.608,7.094c0.047-0.047,0.078-0.078,0.125-0.125c4.156-4.156,4.156-10.906,0-15.078   c-4.172-4.172-10.922-4.172-15.094,0c-4.156,4.172-4.156,10.922,0,15.078c0.859,0.875,1.844,1.547,2.875,2.062   c-5.906,0.688-11.89,1.062-17.937,1.062c-5.344,0-10.641-0.281-15.891-0.844c1.219-0.516,2.375-1.281,3.375-2.281   c4.172-4.156,4.172-10.906,0-15.078s-10.922-4.172-15.078,0c-4.172,4.172-4.172,10.922,0,15.078c0.25,0.266,0.5,0.5,0.781,0.719   c-8.656-1.562-17.125-3.828-25.359-6.781c0.438-3.188-0.547-6.562-3.016-9.016c-4.156-4.172-10.922-4.172-15.078,0   c-0.297,0.297-0.547,0.594-0.797,0.891c-16.718-8.422-32.062-19.625-45.436-32.969c1.078-3.625,0.188-7.719-2.688-10.594   c-2.609-2.594-6.219-3.562-9.594-2.906c-5.734-7-10.969-14.404-15.641-22.186c1.422-0.531,2.766-1.344,3.906-2.469   c4.172-4.188,4.172-10.938,0-15.094c-3.734-3.734-9.531-4.109-13.688-1.156c-3.672-8.141-6.719-16.562-9.109-25.219   c0.516-0.344,1-0.75,1.469-1.219c4.156-4.156,4.156-10.906,0-15.078c-1.594-1.578-3.562-2.562-5.609-2.938   c-1.266-8.25-1.938-16.641-1.938-25.141c0-37.654,12.797-74.053,34.094-98.716c7.266,7.305,20.516,13.258,39.968,18   c25.608,6.242,59.499,9.671,95.421,9.671c35.905,0,69.795-3.43,95.404-9.671c19.391-4.719,32.608-10.648,39.89-17.914   c21.234,24.656,34.015,61.007,34.015,98.63C424.555,325.154,423.836,333.857,422.477,342.389z"></path></g></svg>